<svg id="Camada_1" data-name="Camada 1" xmlns="http://www.w3.org/2000/svg" viewBox="0 0 352.78 491.88"><defs><style>.cls-1{fill:none;stroke:#fff;stroke-miterlimit:10;}</style></defs><g id="Logo"><polygon class="cls-1" points="33.03 186.45 57.55 91.79 69.53 4.89 55 19.23 33.03 186.45"/><polyline class="cls-1" points="77.36 120 48.05 152.11 33.5 184.63"/><polyline class="cls-1" points="176.9 151.65 177.16 223.08 154.68 170.3 150.48 192.89 136.7 174.37 143.11 208.91"/><polyline class="cls-1" points="69.53 4.89 132.05 72.67 146.13 93.76 122.13 95.42 130.87 142.1 134.06 154.66 96.81 125.94 50.09 164.96 42.78 198.7 10.96 246.81 33.03 186.45 50.09 164.96 92.36 159.95 119.25 168.71 94.12 172.52 70.16 184.5 87.35 198.26 98.46 188.5 123.89 187.56 143.11 208.91 122.53 208.13 98.46 188.5"/><polyline class="cls-1" points="176.59 63.08 176.75 109.94 176.9 151.65 154.68 170.3 134.06 154.66 136.7 174.37 119.25 168.71 126.36 148.72 130.57 140.49 162.21 117.7 146.13 93.76 176.59 63.08 144.02 63.48 132.05 72.67 122.13 95.42 96.81 125.94 96.61 68.79 69.53 4.89 74.62 71.16 96.81 125.94 77.36 120 57.55 91.79"/><polygon class="cls-1" points="177.16 223.08 148.27 294.68 157.31 306.01 157.35 318.44 167.42 318.4 176.24 326.08 177.16 223.08"/><polyline class="cls-1" points="37.93 239.57 53.6 228.23 10.96 246.81 16.95 260.17"/><polygon class="cls-1" points="143.11 208.91 150.48 192.89 157.19 272.57 143.11 208.91"/><polyline class="cls-1" points="152.89 253.13 148.27 294.68 151.38 265.53 98.46 188.5 128.63 315.54 136.18 330.3 152.29 341.38 176.29 341.3 176.24 326.08"/><polyline class="cls-1" points="22.61 270.27 59.27 256.64 69.33 273.54 34.3 303.44 22.61 270.27 1.63 275.2 37.93 239.57 59.27 256.64 86.63 235.26 87.35 198.26 53.6 228.23 42.78 198.7 70.16 184.5 50.09 164.96"/><polyline class="cls-1" points="34.12 302.94 35.53 329.58 16.92 318.08"/><polygon class="cls-1" points="35.63 355.58 35.53 329.58 52.71 339.38 35.63 355.58"/><polygon class="cls-1" points="161.34 356.35 151.33 373.53 154.67 407.8 148.78 438.04 178.1 489.94 176.29 341.3 161.34 356.35"/><polyline class="cls-1" points="128.29 314.13 110.77 294.39 88.82 329.39 150.02 431.65 119.92 397.21 141.82 471.06 71.97 402.33 88.82 329.39 85.17 299.99"/><polyline class="cls-1" points="129.15 316.56 113.25 329.31 110.77 294.39"/><polyline class="cls-1" points="52.71 339.38 85.17 299.99 68.94 344.46 72.85 419.24 52.71 339.38 41.48 332.98 51.03 307.46 110.77 294.39 59.27 256.64 16.92 318.08 17.78 271.41"/><line class="cls-1" x1="35.63" y1="355.58" x2="70.42" y2="372.74"/><polygon class="cls-1" points="115.91 374.64 113.25 329.31 151.33 373.53 176.89 390.36 154.67 407.8 115.91 374.64"/><polygon class="cls-1" points="90.97 391.1 113.69 454.66 101.25 391.06 91.67 334.15 90.97 391.1"/><line class="cls-1" x1="119.92" y1="397.21" x2="91.67" y2="334.15"/><polyline class="cls-1" points="176.39 308.8 167.42 318.4 160.53 288.28 176.62 283.37"/><polyline class="cls-1" points="148.27 294.68 160.53 288.28 157.19 272.57"/><line class="cls-1" x1="154.76" y1="243.78" x2="176.77" y2="266.79"/><line class="cls-1" x1="162.21" y1="117.7" x2="176.75" y2="107.37"/><line class="cls-1" x1="140.41" y1="133.41" x2="176.9" y2="151.65"/><polyline class="cls-1" points="98.46 188.5 94.12 172.52 123.89 187.56"/><path class="cls-1" d="M193.35,353.48c-.61.32-21.9-11.11-21.9-11.11" transform="translate(-123.19 -168.98)"/><polyline class="cls-1" points="80.42 365.77 80.54 400.78 91.98 422.02"/><polyline class="cls-1" points="71.97 402.33 80.54 400.78 90.97 391.1"/><path class="cls-1" d="M300.92,628.35,272,607s-5.88,32.38-5.88,33" transform="translate(-123.19 -168.98)"/><line class="cls-1" x1="177.31" y1="425.08" x2="154.67" y2="407.8"/><polygon class="cls-1" points="318.21 183.93 292.06 89.7 278.59 3.02 293.36 17.11 318.21 183.93"/><polyline class="cls-1" points="272.74 118.26 302.6 149.85 317.71 182.12"/><polyline class="cls-1" points="173.76 151.61 174.73 223.03 196.29 169.88 200.89 192.39 214.35 173.63 208.53 208.28"/><polyline class="cls-1" points="278.59 3.02 217.24 71.87 203.53 93.2 227.55 94.44 219.62 141.27 216.65 153.88 253.39 124.52 300.78 162.73 308.67 196.34 341.32 243.9 318.21 183.93 300.78 162.73 258.43 158.46 231.7 167.68 256.89 171.05 281.05 182.62 264.1 196.67 252.82 187.11 227.38 186.6 208.53 208.28 229.09 207.15 252.82 187.11"/><polyline class="cls-1" points="172.55 63.05 173.19 109.9 173.76 151.61 196.29 169.88 216.65 153.88 214.35 173.63 231.7 167.68 224.25 147.81 219.89 139.66 187.86 117.42 203.53 93.2 172.55 63.05 205.12 62.89 217.24 71.87 227.55 94.44 253.39 124.52 252.61 67.38 278.59 3.02 274.64 69.37 253.39 124.52 272.74 118.26 292.06 89.7"/><polygon class="cls-1" points="174.73 223.03 204.85 294.13 196.01 305.61 196.18 318.04 186.11 318.17 177.43 326.01 174.73 223.03"/><polyline class="cls-1" points="314.23 237.13 298.36 226.06 341.32 243.9 335.56 257.36"/><polygon class="cls-1" points="208.53 208.28 200.89 192.39 195.55 272.17 208.53 208.28"/><polyline class="cls-1" points="199.52 252.66 204.85 294.13 201.24 265.03 252.82 187.11 224.85 314.64 217.55 329.53 201.63 340.89 177.64 341.22 177.43 326.01"/><polyline class="cls-1" points="330.07 267.56 293.18 254.56 283.41 271.63 318.95 300.93 330.07 267.56 351.14 272.13 314.23 237.13 293.18 254.56 265.46 233.65 264.1 196.67 298.36 226.06 308.67 196.34 281.05 182.62 300.78 162.73"/><polyline class="cls-1" points="319.13 300.42 318.17 327.08 336.58 315.26"/><polygon class="cls-1" points="318.52 353.08 318.17 327.08 301.16 337.17 318.52 353.08"/><polygon class="cls-1" points="192.84 356.01 203.14 373.02 200.4 407.34 206.81 437.47 178.38 489.87 177.64 341.22 192.84 356.01"/><polyline class="cls-1" points="225.16 313.23 242.34 293.19 264.89 327.81 205.46 431.1 234.96 396.16 214.33 470.37 282.99 400.45 264.89 327.81 268.04 298.35"/><polyline class="cls-1" points="224.34 315.67 240.46 328.15 242.34 293.19"/><polyline class="cls-1" points="301.16 337.17 268.04 298.35 285.02 342.54 282.4 417.37 301.16 337.17 312.28 330.58 302.3 305.23 242.34 293.19 293.18 254.56 336.58 315.26 334.92 268.61"/><line class="cls-1" x1="318.53" y1="353.08" x2="284.03" y2="370.83"/><polygon class="cls-1" points="238.59 373.52 240.46 328.15 203.14 373.02 177.88 390.29 200.4 407.34 238.59 373.52"/><polygon class="cls-1" points="263.81 389.55 242.18 453.49 253.52 389.69 262.12 332.62 263.81 389.55"/><line class="cls-1" x1="234.96" y1="396.16" x2="262.12" y2="332.62"/><polyline class="cls-1" points="176.98 308.73 186.11 318.17 192.48 287.94 176.31 283.3"/><polyline class="cls-1" points="204.85 294.13 192.48 287.94 195.55 272.17"/><line class="cls-1" x1="197.48" y1="243.34" x2="175.88" y2="266.73"/><line class="cls-1" x1="187.86" y1="117.42" x2="173.15" y2="107.33"/><line class="cls-1" x1="209.93" y1="132.74" x2="173.76" y2="151.61"/><polyline class="cls-1" points="252.82 187.11 256.89 171.05 227.38 186.6"/><path class="cls-1" d="M404.23,351.6c.61.3,21.7-11.49,21.7-11.49" transform="translate(-123.19 -168.98)"/><polyline class="cls-1" points="273.92 364.04 274.4 399.05 263.32 420.48"/><polyline class="cls-1" points="282.99 400.45 274.4 399.05 263.81 389.55"/><path class="cls-1" d="M301.42,628.28,330,606.46s6.44,32.27,6.45,32.91" transform="translate(-123.19 -168.98)"/><line class="cls-1" x1="178.06" y1="425.01" x2="200.4" y2="407.34"/></g></svg>